<?xml version="1.0" encoding="utf-8"?>
<!-- Generator: Adobe Illustrator 19.0.1, SVG Export Plug-In . SVG Version: 6.00 Build 0)  -->
<svg version="1.1" id="Layer_1" xmlns="http://www.w3.org/2000/svg" xmlns:xlink="http://www.w3.org/1999/xlink" x="0px" y="0px"
	 viewBox="-909 370.9 100 100" style="enable-background:new -909 370.9 100 100;" xml:space="preserve">
<style type="text/css">
	.st0{fill:#415B6B;}
	.st1{opacity:0.51;fill:url(#SVGID_1_);}
	.st2{fill-rule:evenodd;clip-rule:evenodd;fill:#FFFFFF;}
	.st3{fill:#FFFFFF;}
</style>
<g>
	<g>
		<path class="st0" d="M-859,372c-27,0-48.9,21.9-48.9,48.9s21.9,48.9,48.9,48.9s48.9-21.9,48.9-48.9S-832,372-859,372z"/>
	</g>
</g>
<linearGradient id="SVGID_1_" gradientUnits="userSpaceOnUse" x1="-883.7335" y1="403.1067" x2="-827.9335" y2="458.9067">
	<stop  offset="0.5818" style="stop-color:#283C49"/>
	<stop  offset="1" style="stop-color:#415B6B"/>
</linearGradient>
<path class="st1" d="M-811.4,432.1l-35.1-41.3l-12.6-4.9l-12.3,4.9v14.1l4,4.4v0.1c-0.3,0.2-0.5,0.5-0.7,0.8c-0.3,0.3-0.7,0.6-1,1
	c0.5,1.1,1.1,2,1.5,3.2c-0.1,0.8-0.5,1.3-0.8,2c-1.2,0.3-2.2,0.8-3.4,1.1c0,1,0,2,0,2.9c0.1,0,3.6,4,3.6,4.2c0,0,0,0,0.1,0
	c-0.1,0.1-0.1,0.3-0.2,0.4l-0.1,0v-0.3l-0.4-0.2v-0.3l-12.6-4.9l-12.3,4.9v14.1l26.4,30.8c0,0,19.6,4.6,37.6-9.1
	C-814.4,448.4-811.4,432.1-811.4,432.1z"/>
<g>
	<g>
		<g>
			<defs>
				<circle id="SVGID_2_" cx="-859" cy="420.9" r="48.9"/>
			</defs>
			<clipPath id="SVGID_3_">
				<use xlink:href="#SVGID_2_"  style="overflow:visible;"/>
			</clipPath>
		</g>
	</g>
</g>
<g>
	<path class="st2" d="M-861,406.4c1,0,2,0,2.9,0c0.3,1.2,0.7,2.2,1.1,3.3c0.1,0.3,1.4,0.9,1.9,0.9c1.2-0.4,2.2-1,3.2-1.5
		c0.5,0.2,0.8,0.6,1.1,1c0.3,0.3,0.7,0.6,1,1c-0.5,1.1-0.9,2.2-1.5,3.2c0.2,0.7,0.6,1.3,0.8,2c1.1,0.4,2.2,0.8,3.4,1.1
		c0,1,0,2,0,2.9c-1.2,0.3-2.1,0.8-3.3,1.1c-0.4,0.5-0.5,1.4-0.9,1.9c0.6,1,1,2.2,1.6,3.2c-0.2,0.5-0.6,0.8-1,1.1
		c-0.3,0.3-0.6,0.7-1,1c-1.1-0.5-2.2-0.9-3.2-1.5c-0.7,0.2-1.3,0.6-2.1,0.8c-0.2,1.3-0.7,2.2-1,3.4c-1,0-2,0-2.9,0
		c-0.2-1.2-0.8-2.1-1.1-3.3c-0.6-0.3-1.2-0.5-1.9-0.8c-1.2,0.4-2.2,1-3.2,1.5c-0.5-0.2-0.8-0.6-1.1-1c-0.3-0.3-0.7-0.6-1-1
		c0.4-1.2,1.1-2.1,1.4-3.3c-0.1-0.7-0.5-1.1-0.7-1.9c-1.2-0.4-2.2-0.9-3.5-1.1c0-1,0-2,0-2.9c1.2-0.3,2.2-0.8,3.4-1.1
		c0.2-0.7,0.6-1.2,0.8-2c-0.4-1.1-1-2.1-1.5-3.2c0.2-0.4,0.7-0.7,1-1c0.3-0.3,0.6-0.8,1.1-1c1.1,0.4,2,1.1,3.3,1.4
		c0.7-0.2,1.2-0.5,1.9-0.8C-861.7,408.6-861.2,407.6-861,406.4z M-859.5,411.7c-3.8,0-6.9,3.1-6.9,6.9c0,3.8,3.1,6.9,6.9,6.9
		c3.8,0,6.9-3.1,6.9-6.9C-852.6,414.8-855.7,411.7-859.5,411.7z"/>
	<path class="st2" d="M-853.6,418.7c0,3.3-2.6,5.9-5.9,5.9c-3.3,0-5.9-2.6-5.9-5.9c0-3.3,2.6-5.9,5.9-5.9
		C-856.2,412.8-853.6,415.4-853.6,418.7z M-859.5,414.4c-2.4,0-4.3,1.9-4.3,4.3s1.9,4.3,4.3,4.3c2.4,0,4.3-1.9,4.3-4.3
		S-857.1,414.4-859.5,414.4z"/>
</g>
<path class="st3" d="M-859.1,385.8l-12.3,4.9v14.1l12.4,6.6l12.5-6.2v-14.5L-859.1,385.8z M-859.1,388.1l8.7,3.4l-8.7,3.4l-8.5-3.4
	L-859.1,388.1z M-869.4,392.8l9.3,3.8l0.1,11.8l-9.4-4.7V392.8z M-848.6,404l-9.5,4.5l-0.1-11.9l9.6-3.9V404z"/>
<path class="st3" d="M-838.4,420.8l-12.3,4.9v14.1l12.4,6.6l12.5-6.2v-14.5L-838.4,420.8z M-838.4,423l8.7,3.4l-8.7,3.4l-8.5-3.4
	L-838.4,423z M-848.7,427.7l9.3,3.8l0.1,11.8l-9.4-4.7V427.7z M-827.8,439l-9.5,4.5l-0.1-11.9l9.6-3.9V439z"/>
<path class="st3" d="M-881.4,419.2l-12.3,4.9v14.1l12.4,6.6l12.5-6.2v-14.5L-881.4,419.2z M-881.4,421.4l8.7,3.4l-8.7,3.4l-8.5-3.4
	L-881.4,421.4z M-891.7,426.1l9.3,3.8l0.1,11.8l-9.4-4.7V426.1z M-870.8,437.4l-9.5,4.5l-0.1-11.9l9.6-3.9V437.4z"/>
</svg>
